<?xml version="1.0" encoding="UTF-8"?>
<svg version="1.1" xmlns="http://www.w3.org/2000/svg" width="500" height="500">
<path d="M0 0 C165 0 330 0 500 0 C500 165 500 330 500 500 C335 500 170 500 0 500 C0 335 0 170 0 0 Z " fill="#FEFEFE" transform="translate(0,0)"/>
<path d="M0 0 C5.51676935 4.75055138 8.44694376 10.19773838 9.5 17.4375 C8.02542264 27.94386367 2.65486848 35.81306048 -5.68457031 42.31298828 C-9.36603459 45.01640687 -13.15346776 47.53869498 -17 50 C-14.13099442 52.92370066 -11.24430228 55.67332576 -8.0625 58.25 C-3.23539944 62.49088721 1.28094263 67.06598362 2.47265625 73.5859375 C2.70374189 80.27737374 1.00246637 84.73347213 -3.48828125 89.81640625 C-4.42027344 90.72261719 -5.35226562 91.62882812 -6.3125 92.5625 C-7.04400269 93.27756714 -7.04400269 93.27756714 -7.7902832 94.00708008 C-11.06473817 97.18130219 -14.41202974 100.18780709 -18 103 C-17.52949219 103.49628906 -17.05898438 103.99257812 -16.57421875 104.50390625 C-9.26579293 112.47810999 -7.3954587 117.90250239 -7.6484375 128.74609375 C-8.24574046 134.2744645 -10.57940518 136.7179998 -14.5625 140.3125 C-17 142 -17 142 -20 143 C-20.33 145.31 -20.66 147.62 -21 150 C-22.65614657 150.38218767 -24.32457024 150.71395102 -26 151 C-27 150 -27 150 -27.0625 146.4375 C-27.041875 145.303125 -27.02125 144.16875 -27 143 C-28.3303125 142.6596875 -28.3303125 142.6596875 -29.6875 142.3125 C-34.4208722 140.4370129 -37.03577011 137.92845979 -39.3125 133.375 C-41.24572838 123.88460613 -40.02510552 117.2734773 -35 109 C-33.68 109 -32.36 109 -31 109 C-30.34 109.66 -29.68 110.32 -29 111 C-29.29826374 113.23697803 -29.90482428 114.83488455 -31.03125 116.7890625 C-32.21639098 119.49386006 -32.26618161 121.55494774 -32.25 124.5 C-32.25515625 125.4384375 -32.2603125 126.376875 -32.265625 127.34375 C-31.99254166 130.07458344 -31.48065378 131.70602935 -30 134 C-29.34 134.33 -28.68 134.66 -28 135 C-27.67 127.74 -27.34 120.48 -27 113 C-21 118 -21 118 -20.31884766 120.2199707 C-20.35026855 120.94788818 -20.38168945 121.67580566 -20.4140625 122.42578125 C-20.43339844 123.22177734 -20.45273438 124.01777344 -20.47265625 124.83789062 C-20.52292969 125.65451172 -20.57320312 126.47113281 -20.625 127.3125 C-20.65207031 128.14845703 -20.67914063 128.98441406 -20.70703125 129.84570312 C-20.77740437 131.89825247 -20.88501678 133.94946591 -21 136 C-16.3191927 131.72067279 -16.3191927 131.72067279 -14.75 125.875 C-15.25800662 118.00089744 -18.24850961 112.33991585 -24 107 C-26.86386712 104.64434247 -29.80401339 102.38784491 -32.7409668 100.12451172 C-41.27701866 93.52027332 -48.9655133 87.24140691 -50.5625 76.0625 C-50.11218041 68.40706698 -44.94607958 62.50047662 -39.74609375 57.3125 C-37.71344207 55.78460075 -36.55957604 55.07860502 -34 55 C-31.75 56.9375 -31.75 56.9375 -30 59 C-30.92232422 59.77923828 -30.92232422 59.77923828 -31.86328125 60.57421875 C-32.67152344 61.27160156 -33.47976562 61.96898437 -34.3125 62.6875 C-35.11300781 63.37199219 -35.91351563 64.05648437 -36.73828125 64.76171875 C-40.33171554 68.31791538 -41.87642443 70.88781991 -42.4375 75.9375 C-42.21600603 80.3263619 -40.93824147 82.64200975 -38 86 C-33.05 89.96 -33.05 89.96 -28 94 C-27.67 83.11 -27.34 72.22 -27 61 C-22 63 -22 63 -21 64 C-20.91209025 66.29151417 -20.89305962 68.58572524 -20.90234375 70.87890625 C-20.9037587 71.5655687 -20.90517365 72.25223114 -20.90663147 72.95970154 C-20.91224521 75.16067801 -20.92479993 77.36155409 -20.9375 79.5625 C-20.94251324 81.05143083 -20.94707645 82.54036324 -20.95117188 84.02929688 C-20.96221907 87.68623075 -20.97949287 91.34310558 -21 95 C-19.56957861 93.91715587 -18.14330512 92.82883132 -16.71875 91.73828125 C-15.92404297 91.13282471 -15.12933594 90.52736816 -14.31054688 89.90356445 C-9.95596414 86.316003 -5.51776591 82.10659549 -4.5625 76.375 C-5.48946833 69.22410147 -11.43432726 64.17214046 -16.74609375 59.70703125 C-20.05210147 57.20317445 -23.55335695 55.05763171 -27.07421875 52.87109375 C-52.80841709 36.41357572 -52.80841709 36.41357572 -56 23 C-57.05189377 15.96354556 -56.07000144 10.89725555 -52.484375 4.77734375 C-50.82823882 2.79433859 -49.36946397 1.97715074 -47 1 C-41.68120655 6.67337968 -36.88536082 12.36597956 -36.5625 20.4375 C-36.77232177 25.25500793 -38.23148532 29.54713268 -40 34 C-37.69682046 36.0371588 -35.35911689 38.02792573 -33 40 C-32.1028125 40.76570313 -32.1028125 40.76570313 -31.1875 41.546875 C-30.61 42.00578125 -30.0325 42.4646875 -29.4375 42.9375 C-28.92058594 43.35902344 -28.40367187 43.78054687 -27.87109375 44.21484375 C-24.90973378 45.45750211 -23.05505674 44.8771574 -20 44 C-17.72902622 42.53850958 -15.71045052 41.11873356 -13.625 39.4375 C-13.07972656 39.01275391 -12.53445313 38.58800781 -11.97265625 38.15039062 C-10.64048748 37.11036413 -9.31909618 36.05655762 -8 35 C-8.65585189 31.39007621 -8.65585189 31.39007621 -10 28 C-10.91351716 17.42716201 -9.50330239 11.03354929 -2.75 3 C-1.84151012 1.99256568 -0.92781291 0.98966711 0 0 Z " fill="#0699B4" transform="translate(274,100)"/>
<path d="M0 0 C4.00693328 0.93018094 5.66884573 2.47901395 8.40625 5.55859375 C10.98508568 10.35851089 11.05352208 15.59984178 11.4765625 20.9296875 C11.56283401 21.95192917 11.64910553 22.97417084 11.73799133 24.02738953 C12.01333696 27.34951251 12.27414295 30.67251196 12.53125 33.99609375 C12.66432053 35.68856232 12.66432053 35.68856232 12.80007935 37.41522217 C18.2220078 107.17964429 18.2220078 107.17964429 -0.59375 130.55859375 C-4.77681058 135.01780039 -9.17527446 139.26228209 -13.54296875 143.5390625 C-21.29336986 151.16203066 -26.53244361 158.46686272 -30.59375 168.55859375 C-31.19523267 169.95558575 -31.79897482 171.35161001 -32.40625 172.74609375 C-32.9940625 174.13828125 -32.9940625 174.13828125 -33.59375 175.55859375 C-35.25986905 175.60131475 -36.92757885 175.59923207 -38.59375 175.55859375 C-38.92375 175.22859375 -39.25375 174.89859375 -39.59375 174.55859375 C-39.21506275 168.67289527 -37.93598148 164.11121182 -35.28125 158.87109375 C-34.93368652 158.18192871 -34.58612305 157.49276367 -34.22802734 156.78271484 C-30.2124317 149.25629173 -24.67231374 143.4580836 -18.59375 137.55859375 C-3.47365013 122.82563726 5.65906806 107.31665479 6.57055664 85.65356445 C6.57759702 84.26385178 6.57578392 82.87407387 6.56640625 81.484375 C6.56341522 80.71626495 6.56042419 79.94815491 6.55734253 79.1567688 C6.46657947 70.03718309 5.86963821 60.94877453 5.234375 51.85351562 C5.03101184 48.93017023 4.8390824 46.00623073 4.6484375 43.08203125 C4.87218204 24.62831948 4.87218204 24.62831948 -0.59375 8.55859375 C-2.66249034 7.91607025 -2.66249034 7.91607025 -4.59375 7.55859375 C-5.59146813 10.55174815 -5.73519065 12.58815632 -5.76733398 15.71679688 C-5.78082382 16.76798706 -5.79431366 17.81917725 -5.80821228 18.90222168 C-5.81865067 20.03663696 -5.82908905 21.17105225 -5.83984375 22.33984375 C-5.87277095 24.73177465 -5.90598278 27.12370164 -5.93945312 29.515625 C-5.98695656 33.29473276 -6.03140776 37.07382342 -6.07055664 40.85302734 C-6.11016508 44.49463179 -6.16172568 48.13591489 -6.21484375 51.77734375 C-6.2232579 52.91175903 -6.23167206 54.04617432 -6.24034119 55.21496582 C-6.25698318 56.26615601 -6.27362518 57.31734619 -6.29077148 58.40039062 C-6.30107895 59.32621948 -6.31138641 60.25204834 -6.32200623 61.20593262 C-6.59375 63.55859375 -6.59375 63.55859375 -8.59375 66.55859375 C-10.24375 66.22859375 -11.89375 65.89859375 -13.59375 65.55859375 C-13.59375 51.03859375 -13.59375 36.51859375 -13.59375 21.55859375 C-15.57375 21.88859375 -17.55375 22.21859375 -19.59375 22.55859375 C-19.78655141 32.54571933 -19.78655141 32.54571933 -19.09375 42.49609375 C-18.55420313 47.04370307 -18.4808302 51.54722756 -18.46875 56.12109375 C-18.46423828 56.8370874 -18.45972656 57.55308105 -18.45507812 58.29077148 C-18.46998664 63.43483039 -18.46998664 63.43483039 -19.59375 64.55859375 C-21.25992115 64.59923207 -22.92763095 64.60131475 -24.59375 64.55859375 C-26.6386504 58.56520682 -27.01191159 52.92535614 -27.21875 46.62109375 C-27.25742187 45.65107422 -27.29609375 44.68105469 -27.3359375 43.68164062 C-27.42950076 41.30747299 -27.51524208 38.93329883 -27.59375 36.55859375 C-29.24375 37.21859375 -30.89375 37.87859375 -32.59375 38.55859375 C-32.62085123 41.12116555 -32.64063771 43.6834474 -32.65625 46.24609375 C-32.66462891 46.96732422 -32.67300781 47.68855469 -32.68164062 48.43164062 C-32.69928802 52.29642014 -32.40819366 55.79179184 -31.59375 59.55859375 C-31.52915958 61.32837136 -31.50763935 63.10029527 -31.53125 64.87109375 C-31.54027344 65.75410156 -31.54929687 66.63710937 -31.55859375 67.546875 C-31.57019531 68.21074219 -31.58179688 68.87460938 -31.59375 69.55859375 C-33.96875 70.18359375 -33.96875 70.18359375 -36.59375 70.55859375 C-41.96092035 65.1914234 -40.83453493 52.37339853 -40.96875 44.99609375 C-40.99469238 44.23490234 -41.02063477 43.47371094 -41.04736328 42.68945312 C-41.05988488 38.93297217 -40.74932138 36.79995346 -38.6953125 33.61328125 C-35.22499476 30.22036837 -33.50012452 29.55859375 -28.59375 29.55859375 C-28.7175 28.54796875 -28.84125 27.53734375 -28.96875 26.49609375 C-28.48062146 21.37074406 -26.41633658 18.8814385 -22.59375 15.55859375 C-19.50315206 13.66096662 -18.42921394 13.55859375 -14.59375 13.55859375 C-14.5525 12.71296875 -14.51125 11.86734375 -14.46875 10.99609375 C-12.46672444 3.13099333 -8.20201981 -0.60526953 0 0 Z " fill="#080808" transform="translate(343.59375,129.44140625)"/>
<path d="M0 0 C2.75739404 2.42913284 3.74346992 3.78637967 4.625 7.3125 C4.625 8.6325 4.625 9.9525 4.625 11.3125 C5.49125 11.395 6.3575 11.4775 7.25 11.5625 C11.7683981 12.56658847 15.1665656 14.3900183 18 18.125 C18.88305234 21.21568318 18.74779902 24.1197254 18.625 27.3125 C20.171875 27.3434375 20.171875 27.3434375 21.75 27.375 C26.0660319 28.41920127 27.86531945 29.30650142 30.5234375 32.7890625 C34.95861169 42.94907145 30.94274402 56.9378363 28.625 67.3125 C26.25 67.9375 26.25 67.9375 23.625 68.3125 C21.625 66.3125 21.625 66.3125 21.61328125 63.484375 C21.72027344 62.35515625 21.82726562 61.2259375 21.9375 60.0625 C22.03675781 58.94359375 22.13601562 57.8246875 22.23828125 56.671875 C22.48675306 54.51343305 22.78854258 52.36010498 23.15625 50.21875 C23.60185959 47.45597053 23.79106284 44.85790535 23.8125 42.0625 C23.82667969 41.21171875 23.84085938 40.3609375 23.85546875 39.484375 C23.83265113 37.10112236 23.83265113 37.10112236 21.625 35.3125 C19.55625966 34.6699765 19.55625966 34.6699765 17.625 34.3125 C17.63660156 34.87195313 17.64820313 35.43140625 17.66015625 36.0078125 C17.89544542 56.91493561 17.89544542 56.91493561 14.625 62.3125 C12.975 61.9825 11.325 61.6525 9.625 61.3125 C9.59574498 57.62501691 9.57811582 53.93756408 9.5625 50.25 C9.55412109 49.21166016 9.54574219 48.17332031 9.53710938 47.10351562 C9.52001958 41.72023025 9.76403069 36.63974764 10.625 31.3125 C10.6866181 29.5009279 10.71232808 27.68744968 10.6875 25.875 C10.67847656 25.01003906 10.66945312 24.14507812 10.66015625 23.25390625 C10.64855469 22.61324219 10.63695312 21.97257812 10.625 21.3125 C8.645 20.6525 6.665 19.9925 4.625 19.3125 C4.63547363 20.60462402 4.64594727 21.89674805 4.65673828 23.22802734 C4.69286719 28.01006309 4.71587451 32.79208673 4.73486328 37.57421875 C4.74493712 39.64617947 4.75859666 41.71812593 4.77587891 43.79003906 C4.80006664 46.76370764 4.81146908 49.7371887 4.8203125 52.7109375 C4.83063507 53.64118744 4.84095764 54.57143738 4.85159302 55.52987671 C4.85174408 56.39061798 4.85189514 57.25135925 4.85205078 58.13818359 C4.856492 58.89763275 4.86093323 59.65708191 4.86550903 60.43954468 C4.625 62.3125 4.625 62.3125 2.625 64.3125 C-0.91071429 63.77678571 -0.91071429 63.77678571 -2.375 62.3125 C-2.48754314 60.63567005 -2.5317764 58.95420006 -2.54858398 57.27368164 C-2.56207382 56.19909195 -2.57556366 55.12450226 -2.58946228 54.01734924 C-2.59990067 52.84760056 -2.61033905 51.67785187 -2.62109375 50.47265625 C-2.6540262 48.02408489 -2.68723794 45.57551727 -2.72070312 43.12695312 C-2.76820229 39.24457333 -2.81262907 35.36220937 -2.85180664 31.47973633 C-2.89137691 27.74804684 -2.94295483 24.01667363 -2.99609375 20.28515625 C-3.0045079 19.11743179 -3.01292206 17.94970734 -3.02159119 16.74659729 C-3.03823318 15.66885544 -3.05487518 14.59111359 -3.07202148 13.48071289 C-3.08232895 12.52886612 -3.09263641 11.57701935 -3.10325623 10.59632874 C-3.15964729 8.11544784 -3.15964729 8.11544784 -5.375 6.3125 C-8.68183466 6.60233269 -8.68183466 6.60233269 -11.375 8.3125 C-11.75384731 11.35193675 -12.07124428 14.376429 -12.34765625 17.42578125 C-12.43534271 18.37064392 -12.52302917 19.31550659 -12.6133728 20.28900146 C-12.89676222 23.40029998 -13.16922695 26.51236259 -13.4375 29.625 C-13.52871124 30.68194061 -13.61992249 31.73888123 -13.71389771 32.82785034 C-14.91394562 47.01097954 -15.78602837 61.13886721 -15.8125 75.375 C-15.81831085 76.09305817 -15.8241217 76.81111633 -15.83010864 77.55093384 C-15.89995229 89.91540299 -14.70242479 102.30027071 -8.9375 113.4375 C-8.60113525 114.10072266 -8.26477051 114.76394531 -7.91821289 115.44726562 C-4.00435152 122.68142522 1.64076277 127.80004911 7.625 133.3125 C10.06417009 135.89624805 12.35557315 138.57948476 14.625 141.3125 C15.60919922 142.46298828 15.60919922 142.46298828 16.61328125 143.63671875 C23.92123347 152.40350889 29.57415897 160.59364292 29.625 172.3125 C27.975 172.6425 26.325 172.9725 24.625 173.3125 C24.08875 172.24 23.5525 171.1675 23 170.0625 C22.62746094 169.3303125 22.25492188 168.598125 21.87109375 167.84375 C21.00913432 166.09281047 20.19134213 164.3196884 19.41015625 162.53125 C14.96527814 152.73963445 8.28895839 145.85515784 0.71484375 138.46484375 C-14.7669664 123.3237612 -24.03911221 105.45370411 -24.52734375 83.46240234 C-24.68539087 68.24909777 -23.78244288 53.20224596 -22.45849609 38.05126953 C-22.1200918 34.13063534 -21.81151908 30.20831328 -21.50390625 26.28515625 C-21.29084801 23.7706814 -21.07607005 21.25635154 -20.859375 18.7421875 C-20.77065125 17.57976532 -20.68192749 16.41734314 -20.59051514 15.21969604 C-20.02882374 9.12287887 -19.45483764 4.98406228 -15.375 0.3125 C-10.76018917 -3.3134228 -4.88377833 -2.44188917 0 0 Z " fill="#090909" transform="translate(165.375,131.6875)"/>
<path d="M0 0 C3.99103481 0.87031912 7.0629261 2.22203115 10.69921875 4.0703125 C33.55701371 15.1747033 58.76813924 17.45270069 83.76171875 19.8203125 C78.11534182 34.60924648 64.31458748 45.32732415 50.453125 51.91796875 C44.04957021 54.44414174 37.55063579 54.10362125 30.76171875 53.8203125 C30.66375 54.47257812 30.56578125 55.12484375 30.46484375 55.796875 C29.28557512 62.6894968 27.59599411 67.26946468 22.26171875 72.0703125 C17.8044625 75.19039187 15.29524934 76.07183662 9.76171875 75.8203125 C11.67824073 69.43190591 13.00821884 67.41624994 18.76171875 63.8203125 C21.00386671 60.1864865 21.99504125 56.97725198 22.76171875 52.8203125 C22.02566406 52.71074219 21.28960937 52.60117188 20.53125 52.48828125 C10.8390474 50.91345837 10.8390474 50.91345837 6.76171875 47.8203125 C7.09171875 46.5003125 7.42171875 45.1803125 7.76171875 43.8203125 C11.41126908 42.89498325 13.87051464 42.87070385 17.51171875 43.7578125 C22.53329139 44.75940162 27.34757264 45.04858203 32.44921875 45.0703125 C33.49964355 45.08372681 33.49964355 45.08372681 34.57128906 45.09741211 C39.5846952 45.06971699 43.93782427 44.18464629 48.76171875 42.8203125 C47.85292969 42.65015625 46.94414062 42.48 46.0078125 42.3046875 C32.75107113 39.74851583 19.90007963 36.9626156 7.76171875 30.8203125 C7.02179688 30.48128906 6.281875 30.14226562 5.51953125 29.79296875 C3.76171875 28.8203125 3.76171875 28.8203125 2.82421875 26.8828125 C2.76171875 24.8203125 2.76171875 24.8203125 4.19921875 23.0703125 C4.71484375 22.6578125 5.23046875 22.2453125 5.76171875 21.8203125 C9.29212293 22.90659071 12.61203329 24.19125602 15.94921875 25.7578125 C28.67368235 31.44366085 42.64540786 32.84233457 56.44921875 33.3203125 C58.37314453 33.39765625 58.37314453 33.39765625 60.3359375 33.4765625 C65.07952976 32.5678698 66.07622127 30.72275625 68.76171875 26.8203125 C68.1697168 26.75561768 67.57771484 26.69092285 66.96777344 26.62426758 C47.1198546 24.39663507 28.88604087 20.71751723 10.58154297 12.61621094 C7.97801708 11.4775613 5.34146334 10.42785173 2.69921875 9.3828125 C1.92449219 9.07472656 1.14976562 8.76664063 0.3515625 8.44921875 C-0.17308594 8.24167969 -0.69773437 8.03414062 -1.23828125 7.8203125 C-1.27953125 8.9134375 -1.32078125 10.0065625 -1.36328125 11.1328125 C-2.41749228 19.37615708 -7.08599166 26.60359514 -13.52734375 31.69921875 C-16.58001494 33.69948503 -18.52822499 34.8203125 -22.23828125 34.8203125 C-22.8506814 29.65865407 -22.8506814 29.65865407 -22.23828125 26.8203125 C-20.63852694 25.2822567 -18.94705456 24.295377 -17.05078125 23.1484375 C-12.6314676 19.91014733 -11.31633127 14.16510843 -9.80078125 9.1328125 C-8.1077087 3.90873303 -6.07912733 -0.3373219 0 0 Z " fill="#0A0A0A" transform="translate(282.23828125,54.1796875)"/>
<path d="M0 0 C4.84237589 4.25184225 6.2540439 9.09592258 8.0078125 15.1953125 C8.98953012 17.97040405 10.19853704 19.71000471 12 22 C12 22.66 12 23.32 12 24 C12.61875 24.309375 13.2375 24.61875 13.875 24.9375 C15.25 25.625 16.625 26.3125 18 27 C18 29.64 18 32.28 18 35 C11.45935367 34.10293219 7.52068758 30.13627966 3.48046875 25.109375 C0.11950306 20.11361935 -1.53711287 14.80397496 -3 9 C-6.33702908 9.59056947 -9.3123764 10.41146822 -12.44140625 11.70703125 C-13.26576172 12.04452393 -14.09011719 12.3820166 -14.93945312 12.72973633 C-15.80505859 13.08704834 -16.67066406 13.44436035 -17.5625 13.8125 C-21.03917764 15.21455674 -24.51948292 16.60750546 -28 18 C-29.08152344 18.433125 -30.16304687 18.86625 -31.27734375 19.3125 C-44.76807174 24.26748761 -59.72125048 25.63828847 -74 25 C-72.63052895 28.52599442 -71.08486557 30.77501035 -68 33 C-50.7316012 35.63039903 -30.36391129 31.27771511 -14.80859375 23.75 C-12.47788622 22.78348629 -10.49081565 22.67860443 -8 23 C-7.505 25.475 -7.505 25.475 -7 28 C-20.38113962 37.67997334 -37.05541457 40.38443997 -53 43 C-46.75328419 44.4195979 -40.84565868 45.33289309 -34.4375 45.25 C-33.70297607 45.24685791 -32.96845215 45.24371582 -32.21166992 45.24047852 C-28.27978845 45.18080556 -24.64640775 44.89272786 -20.8125 43.9375 C-17.01902341 43.00467789 -14.74360517 43.04010124 -11 44 C-11.16796875 46.35546875 -11.16796875 46.35546875 -12 49 C-14.36328125 50.36328125 -14.36328125 50.36328125 -17.3125 51.3125 C-18.27800781 51.63863281 -19.24351562 51.96476562 -20.23828125 52.30078125 C-23 53 -23 53 -27 53 C-25.37461907 59.92032401 -25.37461907 59.92032401 -21.24609375 65.33984375 C-20.31990234 65.75943359 -20.31990234 65.75943359 -19.375 66.1875 C-16 68 -16 68 -15.10546875 70.00390625 C-14.5625 72.25 -14.5625 72.25 -14 76 C-19.82608707 75.59820089 -23.44210025 74.95017978 -28 71 C-32.42013227 65.71973389 -33.82639585 60.81790856 -34 54 C-34.71542969 54.04640625 -35.43085938 54.0928125 -36.16796875 54.140625 C-50.22903118 54.64995197 -61.82423079 50.0489805 -72.4375 40.8984375 C-78.45154397 35.14852384 -85.13064598 28.31272905 -87 20 C-86.01326294 19.88724731 -86.01326294 19.88724731 -85.0065918 19.7722168 C-77.33251415 18.88928744 -69.6644843 17.96264456 -62 17 C-60.65035156 16.83177734 -60.65035156 16.83177734 -59.2734375 16.66015625 C-42.26146251 14.47290232 -26.28772662 10.02792927 -10.82202148 2.5402832 C-4.04957934 -0.68960228 -4.04957934 -0.68960228 0 0 Z " fill="#080808" transform="translate(222,54)"/>
<path d="M0 0 C3.96 0 7.92 0 12 0 C12 6.6 12 13.2 12 20 C19.26 20 26.52 20 34 20 C34 13.4 34 6.8 34 0 C37.96 0 41.92 0 46 0 C46 16.5 46 33 46 50 C42.04 50 38.08 50 34 50 C34 43.4 34 36.8 34 30 C26.74 30 19.48 30 12 30 C12 36.6 12 43.2 12 50 C8.04 50 4.08 50 0 50 C0 33.5 0 17 0 0 Z " fill="#0C0C0C" transform="translate(383,313)"/>
<path d="M0 0 C3.2524748 1.48482545 5.70596357 3.26504849 8 6 C10.02979586 14.29226682 6.0678867 21.07322003 2 28 C1.31623291 29.1753833 1.31623291 29.1753833 0.61865234 30.37451172 C-4.29994859 38.79438198 -9.21823838 47.13892594 -15 55 C-16.65 54.67 -18.3 54.34 -20 54 C-20.35681723 49.66442622 -19.37601578 47.34230298 -17.1484375 43.6484375 C-16.54386719 42.63136719 -15.93929687 41.61429688 -15.31640625 40.56640625 C-14.67574219 39.51324219 -14.03507812 38.46007812 -13.375 37.375 C-7.89115721 28.24570218 -7.89115721 28.24570218 -2.5390625 19.0390625 C-1.80357178 17.76216553 -1.80357178 17.76216553 -1.05322266 16.45947266 C0.09799047 13.77117386 0.21012736 11.89329214 0 9 C-3.10540926 7.78918149 -3.10540926 7.78918149 -7 8 C-12.64924742 11.91965676 -16.73257946 18.07380718 -20.9453125 23.42578125 C-28.13704999 32.43596187 -36.02267066 40.24272999 -45.578125 46.7578125 C-51.45474097 52.19842148 -52.823448 59.60575201 -54.0703125 67.23046875 C-54.23747772 68.18391678 -54.40464294 69.13736481 -54.57687378 70.1197052 C-55.10478377 73.14039287 -55.61590784 76.16358908 -56.125 79.1875 C-56.64372921 82.2216083 -57.16610115 85.25499892 -57.69454956 88.28742981 C-58.02135083 90.16728895 -58.34220559 92.04819435 -58.65628052 93.93022156 C-60.14086582 102.55605144 -60.14086582 102.55605144 -62 106 C-64.5625 106.875 -64.5625 106.875 -67 107 C-67.33 106.67 -67.66 106.34 -68 106 C-67.97204244 95.77152874 -66.10925662 85.69788532 -64.20849609 75.68505859 C-63.748498 73.24202291 -63.31332487 70.79535349 -62.87890625 68.34765625 C-60.76965586 56.85857207 -58.37928621 47.179127 -49.1875 39.3125 C-48.66196533 38.85391602 -48.13643066 38.39533203 -47.5949707 37.92285156 C-46.07562325 36.60095183 -44.53822704 35.29988197 -43 34 C-41.56035562 32.75247032 -40.12252326 31.50284257 -38.6875 30.25 C-38.06230469 29.70472656 -37.43710937 29.15945312 -36.79296875 28.59765625 C-32.11490727 24.42918752 -27.98715176 20.06336401 -24.125 15.125 C-11.3841184 -1.12460095 -11.3841184 -1.12460095 0 0 Z " fill="#090909" transform="translate(329,198)"/>
<path d="M0 0 C3.63 0 7.26 0 11 0 C15.9747811 9.68768056 20.55958505 19.50222716 24.93676758 29.47265625 C25.95572472 31.79147357 26.98246293 34.10674467 28.00976562 36.421875 C28.66191789 37.90083911 29.31362814 39.37999823 29.96484375 40.859375 C30.42406471 41.89357574 30.42406471 41.89357574 30.89256287 42.94866943 C33 47.77010104 33 47.77010104 33 50 C29.04 50 25.08 50 21 50 C19.68 46.7 18.36 43.4 17 40 C9.41 40 1.82 40 -6 40 C-7.98 44.95 -7.98 44.95 -10 50 C-13.96 50 -17.92 50 -22 50 C-20.64478831 45.73154412 -19.04435018 41.68075516 -17.20703125 37.59765625 C-16.80627884 36.70441147 -16.80627884 36.70441147 -16.39743042 35.79312134 C-15.53873994 33.88156947 -14.67578517 31.97198066 -13.8125 30.0625 C-13.22293005 28.75307099 -12.63349349 27.44358191 -12.04418945 26.1340332 C-8.10322117 17.38813481 -4.11564171 8.66529654 0 0 Z " fill="#060606" transform="translate(213,313)"/>
<path d="M0 0 C8.63746223 1.8160236 14.49157756 11.25534676 19.69921875 17.796875 C25.97048048 25.59823839 32.58070219 32.28917005 40.421875 38.5 C48.6212133 45.33068918 52.8652109 52.60385386 54.91015625 63 C55.07491455 63.80928955 55.23967285 64.6185791 55.40942383 65.45239258 C57.53685624 76.12576626 59.31198648 86.87008994 60.97265625 97.625 C61.10623535 98.42115723 61.23981445 99.21731445 61.37744141 100.03759766 C61.66202617 101.88885697 61.82965615 103.75746138 61.97265625 105.625 C61.31265625 106.285 60.65265625 106.945 59.97265625 107.625 C57.34765625 107.25 57.34765625 107.25 54.97265625 106.625 C53.50412046 100.21152733 52.24629874 93.79000447 51.09765625 87.3125 C50.74268646 85.37490852 50.38720596 83.43741055 50.03125 81.5 C49.33573412 77.69323072 48.68596295 73.88293417 48.0703125 70.0625 C45.49663027 54.74677401 39.96898755 47.99926336 28.1875 38.31640625 C19.77720954 31.35522788 12.84826214 23.24189371 6.38671875 14.47265625 C3.71536742 11.01686048 2.57225666 9.79488678 -1.77734375 8.5625 C-5.11557414 8.25097681 -5.11557414 8.25097681 -7.02734375 10.625 C-6.71163291 15.06073734 -4.63058397 18.6745595 -2.52734375 22.5 C-2.17712158 23.14694824 -1.82689941 23.79389648 -1.46606445 24.46044922 C2.98637161 32.60311301 7.75392053 40.59219613 12.75390625 48.41015625 C13.97265625 50.625 13.97265625 50.625 13.66015625 52.9375 C13.43328125 53.494375 13.20640625 54.05125 12.97265625 54.625 C10.49765625 55.12 10.49765625 55.12 7.97265625 55.625 C2.66174775 47.18032562 -2.42474918 38.60860993 -7.46484375 30 C-8.09213379 28.93265625 -8.71942383 27.8653125 -9.36572266 26.765625 C-9.95401855 25.75757813 -10.54231445 24.74953125 -11.1484375 23.7109375 C-11.94399048 22.3504126 -11.94399048 22.3504126 -12.75561523 20.96240234 C-15.10634994 16.64181603 -15.72871759 12.47774876 -15.02734375 7.625 C-11.11749134 1.42316515 -7.08973142 -0.14945415 0 0 Z " fill="#080808" transform="translate(177.02734375,197.375)"/>
<path d="M0 0 C3.63 0 7.26 0 11 0 C11 6.27 11 12.54 11 19 C18.59 19 26.18 19 34 19 C34 12.73 34 6.46 34 0 C37.63 0 41.26 0 45 0 C45 16.17 45 32.34 45 49 C41.04 49 37.08 49 33 49 C33 42.4 33 35.8 33 29 C25.74 29 18.48 29 11 29 C11 35.6 11 42.2 11 49 C7.37 49 3.74 49 0 49 C0 32.83 0 16.66 0 0 Z " fill="#030303" transform="translate(63,314)"/>
<path d="M0 0 C12.54 0 25.08 0 38 0 C38 3.3 38 6.6 38 10 C29.09 10 20.18 10 11 10 C11 13.3 11 16.6 11 20 C18.59 20 26.18 20 34 20 C34 22.97 34 25.94 34 29 C26.41 29 18.82 29 11 29 C11 32.96 11 36.92 11 41 C19.91 41 28.82 41 38 41 C38 43.97 38 46.94 38 50 C25.46 50 12.92 50 0 50 C0 33.5 0 17 0 0 Z " fill="#080808" transform="translate(135,313)"/>
<path d="M0 0 C3.345075 2.35722189 5.48250382 5.0500144 6.5390625 9.03125 C6.82355148 12.92425704 5.99705197 15.47774561 3.625 18.4375 C1 21 1 21 -1 22 C-1.33 43.45 -1.66 64.9 -2 87 C-3.98 87.99 -3.98 87.99 -6 89 C-6.99 88.34 -7.98 87.68 -9 87 C-9.36076355 84.2918396 -9.36076355 84.2918396 -9.34057617 80.80615234 C-9.34034958 79.50495453 -9.34012299 78.20375671 -9.33988953 76.86312866 C-9.32456837 75.43739481 -9.30892037 74.01166444 -9.29296875 72.5859375 C-9.28737443 71.13148434 -9.28310356 69.67702553 -9.28010559 68.2225647 C-9.26864374 64.39193145 -9.23916547 60.56163872 -9.20599365 56.73114014 C-9.17532138 52.82341112 -9.16160637 48.91562716 -9.14648438 45.0078125 C-9.11429667 37.33838632 -9.06308463 29.66924085 -9 22 C-9.78818115 21.70746338 -10.5763623 21.41492676 -11.38842773 21.11352539 C-14.40898922 19.82561467 -15.41514289 18.848666 -17 16 C-17.86120395 11.22846462 -17.70334178 7.20572876 -15.25 3 C-10.42291709 -1.29074036 -6.14036693 -1.97255311 0 0 Z " fill="#0F0F0F" transform="translate(256,51)"/>
<path d="M0 0 C14.19 0 28.38 0 43 0 C43 3.3 43 6.6 43 10 C37.72 10 32.44 10 27 10 C27 23.2 27 36.4 27 50 C23.37 50 19.74 50 16 50 C16 36.8 16 23.6 16 10 C10.72 10 5.44 10 0 10 C0 6.7 0 3.4 0 0 Z " fill="#080808" transform="translate(319,313)"/>
<path d="M0 0 C3.63 0 7.26 0 11 0 C11 13.2 11 26.4 11 40 C19.25 40 27.5 40 36 40 C36 42.97 36 45.94 36 49 C24.12 49 12.24 49 0 49 C0 32.83 0 16.66 0 0 Z " fill="#000000" transform="translate(267,314)"/>
<path d="M0 0 C7 0 7 0 8.77270508 1.74414062 C9.18415771 2.54013672 9.59561035 3.33613281 10.01953125 4.15625 C10.48423828 5.01347656 10.94894531 5.87070312 11.42773438 6.75390625 C11.88470703 7.66011719 12.34167969 8.56632812 12.8125 9.5 C13.75042206 11.28446335 14.69412035 13.06590683 15.64453125 14.84375 C16.05034424 15.63974609 16.45615723 16.43574219 16.87426758 17.25585938 C17.24575928 17.83142578 17.61725098 18.40699219 18 19 C18.66 19 19.32 19 20 19 C21.21329677 17.18495872 21.21329677 17.18495872 22.35546875 14.84375 C22.81373047 13.98652344 23.27199219 13.12929688 23.74414062 12.24609375 C24.70218623 10.42334393 25.64509565 8.59255361 26.57226562 6.75390625 C27.03697266 5.89667969 27.50167969 5.03945313 27.98046875 4.15625 C28.39192139 3.36025391 28.80337402 2.56425781 29.22729492 1.74414062 C31 0 31 0 38 0 C38 11.22 38 22.44 38 34 C35.69 34 33.38 34 31 34 C30.505 24.595 30.505 24.595 30 15 C27.57332375 19.55238725 27.57332375 19.55238725 25.18481445 24.12475586 C23.4941975 27.18809971 22.60667618 28.79378144 19.23046875 29.94140625 C18.12638672 29.97041016 18.12638672 29.97041016 17 30 C15.87162591 28.41906946 14.74743482 26.83515284 13.625 25.25 C12.99851563 24.36828125 12.37203125 23.4865625 11.7265625 22.578125 C10 20 10 20 8 16 C7.67 21.94 7.34 27.88 7 34 C4.69 34 2.38 34 0 34 C0 22.78 0 11.56 0 0 Z " fill="#0699B3" transform="translate(151,390)"/>
<path d="M0 0 C8.58 0 17.16 0 26 0 C26 2.31 26 4.62 26 7 C20.06 7 14.12 7 8 7 C8 9.31 8 11.62 8 14 C13.28 14 18.56 14 24 14 C24 15.98 24 17.96 24 20 C18.72 20 13.44 20 8 20 C8 22.64 8 25.28 8 28 C13.94 28 19.88 28 26 28 C26 29.98 26 31.96 26 34 C17.42 34 8.84 34 0 34 C0 22.78 0 11.56 0 0 Z " fill="#0B9BB5" transform="translate(267,390)"/>
<path d="M0 0 C8.58 0 17.16 0 26 0 C26 2.31 26 4.62 26 7 C20.06 7 14.12 7 8 7 C8 9.31 8 11.62 8 14 C12.95 14 17.9 14 23 14 C23 15.98 23 17.96 23 20 C18.05 20 13.1 20 8 20 C8 22.64 8 25.28 8 28 C13.94 28 19.88 28 26 28 C26 29.98 26 31.96 26 34 C17.42 34 8.84 34 0 34 C0 22.78 0 11.56 0 0 Z " fill="#099BB4" transform="translate(216,390)"/>
<path d="M0 0 C9.57 0 19.14 0 29 0 C29 2.31 29 4.62 29 7 C25.7 7 22.4 7 19 7 C19 15.91 19 24.82 19 34 C16.36 34 13.72 34 11 34 C11 25.09 11 16.18 11 7 C7.37 7 3.74 7 0 7 C0 4.69 0 2.38 0 0 Z " fill="#119EB7" transform="translate(315,390)"/>
<path d="M0 0 C2.58410205 3.14487493 4.13785682 6.30705841 5.6875 10.0625 C6.12449219 11.10535156 6.56148437 12.14820313 7.01171875 13.22265625 C8 16 8 16 8 19 C3.05 19 -1.9 19 -7 19 C-6.10656817 14.53284086 -4.76463639 10.80385599 -2.9375 6.6875 C-2.65583984 6.04232422 -2.37417969 5.39714844 -2.08398438 4.73242188 C-1.3937257 3.15301642 -0.69746802 1.57623507 0 0 Z " fill="#EBEBEB" transform="translate(218,325)"/>
<path d="M0 0 C1.875 1.125 1.875 1.125 3 3 C3.4375 6 3.4375 6 3 9 C1.375 10.9375 1.375 10.9375 -1 12 C-4.125 11.875 -4.125 11.875 -7 11 C-9.15502531 7.76746204 -9.46856135 6.74849077 -9 3 C-6.73529086 -0.64869805 -4.03159541 -0.50394943 0 0 Z " fill="#F2F2F2" transform="translate(253,56)"/>
<path d="M0 0 C2.80844958 2.27771895 3.91735478 3.36197888 4.390625 7.015625 C4.34421875 8.08296875 4.2978125 9.1503125 4.25 10.25 C4.21390625 11.32765625 4.1778125 12.4053125 4.140625 13.515625 C4.09421875 14.33546875 4.0478125 15.1553125 4 16 C3.01 16 2.02 16 1 16 C-1.6553906 11.46370773 -2.4956328 8.25370771 -2 3 C-1.34 2.01 -0.68 1.02 0 0 Z " fill="#E6F4F7" transform="translate(226,111)"/>
<path d="M0 0 C0.66 0 1.32 0 2 0 C3.8382537 3.67650739 3.37884188 7.97796199 3 12 C1.5 15.125 1.5 15.125 0 17 C-2 16 -2 16 -3 13 C-3.39741243 7.73428531 -2.6667422 4.5556846 0 0 Z " fill="#E4F4F7" transform="translate(273,111)"/>
</svg>
