<?xml version="1.0" encoding="UTF-8"?>
<svg version="1.1" xmlns="http://www.w3.org/2000/svg" width="500" height="500">
<path d="M0 0 C165 0 330 0 500 0 C500 165 500 330 500 500 C335 500 170 500 0 500 C0 335 0 170 0 0 Z " fill="#FEFEFE" transform="translate(0,0)"/>
<path d="M0 0 C2.6645814 1.01070329 3.95195872 1.9399484 5.75 4.1875 C7.77873767 8.75215976 7.50965577 13.28232572 6 18 C9.69939736 21.84743324 9.69939736 21.84743324 14.5625 23.0625 C17.48305156 21.78943906 19.62270704 20.10560233 22 18 C21.67 17.01 21.34 16.02 21 15 C20.49394825 9.93948253 20.49228245 7.18021762 23.5 3 C24.325 2.01 25.15 1.02 26 0 C28.61317654 2.02521182 30.59916767 3.77335647 31.6484375 6.984375 C32.07137433 11.09707106 31.48002794 13.31564246 29.08203125 16.734375 C25.94247385 20.27854094 22.94725782 23.36849479 19 26 C19 26.66 19 27.32 19 28 C20.67721041 29.56958193 22.46794114 30.9480525 24.2734375 32.3671875 C26.16587906 34.15687205 27.07929789 35.5714133 28 38 C27.70712815 46.0539759 23.52449353 49.62896463 18 55 C18.66 55.78375 19.32 56.5675 20 57.375 C22.81095138 61.61661481 22.97986649 66.08419923 22 71 C19.625 73.875 19.625 73.875 17 76 C15.70480005 78.16620544 15.70480005 78.16620544 15 80 C14.01 80 13.02 80 12 80 C11.938125 79.4225 11.87625 78.845 11.8125 78.25 C11.1597219 75.75024104 11.1597219 75.75024104 8.5 74.3125 C5.31128402 71.36293772 5.11020025 69.41753759 4.859375 65.1953125 C5.05784171 62.0970267 5.92968536 60.29213406 8 58 C8.99 58 9.98 58 11 58 C10.835 58.495 10.67 58.99 10.5 59.5 C9.78740262 63.0629869 9.88083088 66.36534196 10 70 C10.33 70.33 10.66 70.66 11 71 C11.33 67.37 11.66 63.74 12 60 C16 63 16 63 16.609375 65.04296875 C16.73958333 67.02864583 16.86979167 69.01432292 17 71 C18.43304064 68.13391871 18.30644155 66.18699217 18 63 C15.31416667 57.24464287 10.53695155 54.03558999 5.55859375 50.24609375 C2.16967202 47.27108612 0.3532552 44.5896484 -0.625 40.1875 C0.33409284 35.29612654 3.55768547 32.45987736 7 29 C7.99 29.33 8.98 29.66 10 30 C9.00063488 32.22935295 8.25828005 33.78145534 6.375 35.375 C4.74029647 37.01925921 4.74029647 37.01925921 4.5625 39.875 C5.09621987 43.68728477 6.34639443 45.26834721 9 48 C9.66 48.33 10.32 48.66 11 49 C11.33 43.39 11.66 37.78 12 32 C13.32 32.66 14.64 33.32 16 34 C16.46709352 36.66482841 16.69572473 38.95070966 16.75 41.625 C16.77964844 42.33140625 16.80929688 43.0378125 16.83984375 43.765625 C16.91055357 45.50980047 16.95754035 47.25490827 17 49 C21.04521954 46.08155161 21.04521954 46.08155161 23.125 41.625 C22.96762929 37.06124944 21.12367298 35.07102112 18 32 C15.9250154 30.47134046 13.79679739 29.01268052 11.625 27.625 C5.73864068 23.74203034 0.21594686 19.43189373 -3 13 C-3.35512837 7.5842924 -3.36699949 4.48933265 0 0 Z " fill="#149FB8" transform="translate(236,167)"/>
<path d="M0 0 C1.875 1.3125 1.875 1.3125 3 3 C3 4.32 3 5.64 3 7 C3.94875 7.103125 4.8975 7.20625 5.875 7.3125 C9 8 9 8 11 11 C11 12.32 11 13.64 11 15 C11.598125 15.103125 12.19625 15.20625 12.8125 15.3125 C15.37956563 16.11929206 16.32541359 16.91269683 18 19 C18.328125 20.98046875 18.328125 20.98046875 18.25 23.1875 C18.22421875 23.97382813 18.1984375 24.76015625 18.171875 25.5703125 C17.92390446 29.07571417 17.50585584 32.52224112 17 36 C15.02 36.495 15.02 36.495 13 37 C13 31.39 13 25.78 13 20 C12.01 19.67 11.02 19.34 10 19 C10 23.62 10 28.24 10 33 C8.02 33.495 8.02 33.495 6 34 C6 26.74 6 19.48 6 12 C5.01 11.67 4.02 11.34 3 11 C3 18.92 3 26.84 3 35 C1.68 35 0.36 35 -1 35 C-1.33 24.77 -1.66 14.54 -2 4 C-2.99 4 -3.98 4 -5 4 C-10.52712656 37.14189613 -10.52712656 37.14189613 -0.875 67.7890625 C1.30050654 70.35434729 3.64509956 72.66174064 6.0625 75 C11.96965922 80.72923273 16.35080066 86.56040864 17 95 C15.68 95 14.36 95 13 95 C12.79246094 94.443125 12.58492187 93.88625 12.37109375 93.3125 C9.8562925 87.08336886 6.54087663 82.87564825 2 78 C-11.00568236 63.73182459 -13.65136067 50.93831154 -13 32 C-12.78859641 27.5991464 -12.50584134 23.20683359 -12.1875 18.8125 C-12.11748779 17.74999023 -12.04747559 16.68748047 -11.9753418 15.59277344 C-11.51370151 9.79902676 -10.81425234 5.12520011 -8 0 C-5.06317146 -1.46841427 -3.13175678 -0.76696084 0 0 Z " fill="#0E0E0E" transform="translate(203,185)"/>
<path d="M0 0 C5.96059113 0.32512315 5.96059113 0.32512315 8.6484375 2.0703125 C10.72251063 5.03156142 10.86398219 8.17886345 11.1875 11.6875 C11.26500488 12.491875 11.34250977 13.29625 11.42236328 14.125 C12.06665659 21.86218376 12.27121605 29.61629149 12.35147095 37.37710571 C12.36698383 38.77674583 12.38863226 40.17633331 12.4168396 41.57577515 C12.64747172 54.28678037 10.62850131 64.38303076 2 74 C0.84370308 75.15629692 -0.32310588 76.30217389 -1.5 77.4375 C-6.95677547 82.7252603 -10.83078691 89.13337163 -14 96 C-14.99 96 -15.98 96 -17 96 C-16.65723325 87.94498132 -12.59959199 82.6332072 -7.109375 76.95703125 C-6.32880737 76.14613037 -6.32880737 76.14613037 -5.5324707 75.31884766 C-4.50622243 74.26919344 -3.46404518 73.23476118 -2.40307617 72.22021484 C5.57314854 64.13629099 7.58980545 54.53559029 7.54101562 43.4765625 C7.50770489 42.10934538 7.47318042 40.74215733 7.4375 39.375 C7.41871369 37.95834884 7.40114438 36.54168104 7.38476562 35.125 C7.22728075 25.0101961 6.55556002 15.00002867 5 5 C4.01 5 3.02 5 2 5 C1.67 14.9 1.34 24.8 1 35 C-0.98 35.495 -0.98 35.495 -3 36 C-3 28.08 -3 20.16 -3 12 C-3.99 12.33 -4.98 12.66 -6 13 C-6 20.26 -6 27.52 -6 35 C-6.99 35 -7.98 35 -9 35 C-10.09506492 31.71480525 -10.09960608 29.26336585 -10.0625 25.8125 C-10.05347656 24.72582031 -10.04445313 23.63914063 -10.03515625 22.51953125 C-10.02355469 21.68808594 -10.01195312 20.85664063 -10 20 C-10.99 20.33 -11.98 20.66 -13 21 C-13 26.61 -13 32.22 -13 38 C-14.32 38 -15.64 38 -17 38 C-17.89499166 33.97253753 -18.1767686 29.98715873 -18.3125 25.875 C-18.34988281 24.86179688 -18.38726562 23.84859375 -18.42578125 22.8046875 C-17.89015645 19.27644338 -16.8184515 18.12272563 -14 16 C-13.01 16 -12.02 16 -11 16 C-10.938125 15.071875 -10.87625 14.14375 -10.8125 13.1875 C-10 10 -10 10 -7.5625 8.125 C-5 7 -5 7 -3 7 C-2.87625 6.21625 -2.7525 5.4325 -2.625 4.625 C-2 2 -2 2 0 0 Z " fill="#0E0E0E" transform="translate(297,184)"/>
<path d="M0 0 C0.31453125 0.67546875 0.6290625 1.3509375 0.953125 2.046875 C3.22225491 6.77650721 5.1989283 10.33970873 9 14 C9 15.32 9 16.64 9 18 C4.7273343 17.52525937 2.726198 15.15665032 0 12 C-1.49475812 9.01048377 -2 7.3530811 -2 4 C-2.84594727 4.30236572 -2.84594727 4.30236572 -3.70898438 4.61083984 C-6.30462446 5.53610794 -8.90228192 6.45558293 -11.5 7.375 C-12.386875 7.69210938 -13.27375 8.00921875 -14.1875 8.3359375 C-21.01185615 10.74453379 -27.75343779 12.94563479 -35 13.625 C-35.763125 13.69976562 -36.52625 13.77453125 -37.3125 13.8515625 C-37.869375 13.90054688 -38.42625 13.94953125 -39 14 C-38.34 15.32 -37.68 16.64 -37 18 C-23.01224264 16.31339993 -23.01224264 16.31339993 -9.8125 11.671875 C-8 11 -8 11 -5 12 C-5 12.99 -5 13.98 -5 15 C-6.89332534 15.81832722 -8.78977733 16.62942268 -10.6875 17.4375 C-12.27111328 18.11619141 -12.27111328 18.11619141 -13.88671875 18.80859375 C-18.09467111 20.41891429 -21.81941387 21.138654 -26.3125 21.0625 C-28.1378125 21.0315625 -28.1378125 21.0315625 -30 21 C-30 21.66 -30 22.32 -30 23 C-22.41 23 -14.82 23 -7 23 C-7.495 24.485 -7.495 24.485 -8 26 C-10.31 26.33 -12.62 26.66 -15 27 C-13.07608351 32.31411494 -13.07608351 32.31411494 -9 36 C-8.3125 38.125 -8.3125 38.125 -8 40 C-10.1875 40.3125 -10.1875 40.3125 -13 40 C-16.66429746 37.25177691 -17.84984089 35.70459275 -18.8125 31.1875 C-18.874375 30.135625 -18.93625 29.08375 -19 28 C-20.5159375 28.061875 -20.5159375 28.061875 -22.0625 28.125 C-29.97306354 27.873871 -35.28424927 25.28851279 -41 20 C-47 13.14649682 -47 13.14649682 -47 10 C-45.97398682 9.85751831 -45.97398682 9.85751831 -44.92724609 9.7121582 C-30.59515563 7.68175864 -13.78130891 -0.29959367 0 0 Z " fill="#101010" transform="translate(236,143)"/>
<path d="M0 0 C4.4306514 -0.23862315 7.14635831 0.26061123 11.0625 2.3125 C22.38449096 7.70682678 34.6748826 8.74534733 47 10 C44.64255674 17.09740896 38.98593309 22.19717247 32.6875 26 C27.89864248 27.78190047 24.16457551 28.09931876 19 28 C18.9175 28.886875 18.835 29.77375 18.75 30.6875 C17.87784167 34.53953262 16.86205796 36.29264788 14 39 C10.75 39.8125 10.75 39.8125 8 40 C9.33385644 35.99843068 11.05432783 33.94567217 14 31 C14.7872678 28.8618034 14.7872678 28.8618034 15 27 C12.36 26.67 9.72 26.34 7 26 C7 25.01 7 24.02 7 23 C14.26 23 21.52 23 29 23 C29 22.34 29 21.68 29 21 C27.39125 21.12375 27.39125 21.12375 25.75 21.25 C18.52648294 21.27579828 11.32094325 18.34107 5 15 C5.33 13.68 5.66 12.36 6 11 C6.78375 11.268125 7.5675 11.53625 8.375 11.8125 C9.57125 12.204375 10.7675 12.59625 12 13 C13.03833984 13.39638672 13.03833984 13.39638672 14.09765625 13.80078125 C21.56644144 16.43168889 29.15242335 16.75532925 37 16 C37.66 15.34 38.32 14.68 39 14 C38.09121094 13.91363281 37.18242187 13.82726562 36.24609375 13.73828125 C24.0219032 12.37167943 13.27893896 8.93453579 2 4 C1.95875 4.845625 1.9175 5.69125 1.875 6.5625 C0.73752407 11.03115545 -1.49136461 14.01724907 -5 17 C-7.19921875 17.69921875 -7.19921875 17.69921875 -9 18 C-8.62721718 13.77512805 -7.07024733 11.73362312 -4.27734375 8.625 C-2.20431403 5.98775118 -1.1865574 3.12251946 0 0 Z " fill="#0F0F0F" transform="translate(264,143)"/>
<path d="M0 0 C2.31 0 4.62 0 7 0 C7 3.63 7 7.26 7 11 C11.29 11 15.58 11 20 11 C20 7.37 20 3.74 20 0 C22.31 0 24.62 0 27 0 C27 9.57 27 19.14 27 29 C24.69 29 22.38 29 20 29 C20 25.04 20 21.08 20 17 C15.71 17 11.42 17 7 17 C7 20.96 7 24.92 7 29 C4.69 29 2.38 29 0 29 C0 19.43 0 9.86 0 0 Z " fill="#0E0E0E" transform="translate(336,291)"/>
<path d="M0 0 C2.31 0 4.62 0 7 0 C7 3.63 7 7.26 7 11 C11.29 11 15.58 11 20 11 C20 7.37 20 3.74 20 0 C22.31 0 24.62 0 27 0 C27 9.57 27 19.14 27 29 C24.69 29 22.38 29 20 29 C20 25.04 20 21.08 20 17 C15.71 17 11.42 17 7 17 C7 20.96 7 24.92 7 29 C4.69 29 2.38 29 0 29 C0 19.43 0 9.86 0 0 Z " fill="#0C0C0C" transform="translate(148,291)"/>
<path d="M0 0 C2.31 0 4.62 0 7 0 C11.96168855 9.43266064 16.04122037 19.11476329 20 29 C17.69 29 15.38 29 13 29 C12.34 27.02 11.68 25.04 11 23 C6.05 23 1.1 23 -4 23 C-4.33 24.65 -4.66 26.3 -5 28 C-6 29 -6 29 -9.0625 29.0625 C-10.031875 29.041875 -11.00125 29.02125 -12 29 C-11.37143878 25.08165565 -10.16760882 21.85451551 -8.49609375 18.26171875 C-8.00302734 17.19501953 -7.50996094 16.12832031 -7.00195312 15.02929688 C-6.48568359 13.92650391 -5.96941406 12.82371094 -5.4375 11.6875 C-4.65729492 10.00430664 -4.65729492 10.00430664 -3.86132812 8.28710938 C-2.57900626 5.52247049 -1.29175153 2.76024234 0 0 Z " fill="#090909" transform="translate(236,291)"/>
<path d="M0 0 C7.26 0 14.52 0 22 0 C22 1.65 22 3.3 22 5 C17.05 5 12.1 5 7 5 C7 7.31 7 9.62 7 12 C11.29 12 15.58 12 20 12 C20 13.65 20 15.3 20 17 C15.71 17 11.42 17 7 17 C7 19.31 7 21.62 7 24 C12.28 24 17.56 24 23 24 C23 25.65 23 27.3 23 29 C15.41 29 7.82 29 0 29 C0 19.43 0 9.86 0 0 Z " fill="#090909" transform="translate(190,291)"/>
<path d="M0 0 C3.8125 0.625 3.8125 0.625 5.8125 1.75 C7.31976746 4.57612649 7.12587571 6.42856775 6.8125 9.625 C5.62279254 12.46372776 4.0860041 15.05399553 2.5 17.6875 C2.09587891 18.38166016 1.69175781 19.07582031 1.27539062 19.79101562 C0.13467095 21.74415029 -1.02241745 23.68632349 -2.1875 25.625 C-2.77917969 26.61371094 -3.37085938 27.60242188 -3.98046875 28.62109375 C-4.37878906 29.28238281 -4.77710938 29.94367188 -5.1875 30.625 C-6.5075 30.295 -7.8275 29.965 -9.1875 29.625 C-7.73713909 24.50514672 -5.43323549 20.45413655 -2.625 16 C0.80270855 10.62597965 0.80270855 10.62597965 2.8125 4.625 C-2.67225768 5.90883958 -5.46108676 8.58933035 -9 12.75 C-13.14698332 17.47570751 -17.30087163 21.6562889 -22.34765625 25.453125 C-27.33966625 31.34602853 -28.05607001 40.31278249 -29.375 47.6875 C-29.55224609 48.64849609 -29.72949219 49.60949219 -29.91210938 50.59960938 C-30.34300433 52.9404171 -30.76801928 55.28212485 -31.1875 57.625 C-33.1675 58.12 -33.1675 58.12 -35.1875 58.625 C-34.66696192 52.17032777 -33.84632734 45.77548114 -32.875 39.375 C-32.76953857 38.60687988 -32.66407715 37.83875977 -32.55541992 37.04736328 C-31.08015491 27.72660048 -25.353123 22.54269297 -18.8125 16.1875 C-17.32306783 14.7329764 -15.8360493 13.27597675 -14.3515625 11.81640625 C-13.64008057 11.11708984 -12.92859863 10.41777344 -12.19555664 9.69726562 C-9.8131472 7.23867701 -7.67907005 4.63843841 -5.60571289 1.91625977 C-3.73504955 0.21305122 -2.50366381 0.09924178 0 0 Z " fill="#101010" transform="translate(291.1875,221.375)"/>
<path d="M0 0 C5.40956826 -0.70945158 5.40956826 -0.70945158 8 0 C10.4296875 2.1640625 10.4296875 2.1640625 13 5 C13.86238281 5.94617188 14.72476563 6.89234375 15.61328125 7.8671875 C16.05285156 8.35703125 16.49242187 8.846875 16.9453125 9.3515625 C21.17348486 14.06295456 25.42018404 18.49438702 30.34375 22.5 C34.03616157 25.84407086 35.43710591 28.80917774 36.38671875 33.68359375 C36.7105957 35.32231445 36.7105957 35.32231445 37.04101562 36.99414062 C37.36102539 38.69860352 37.36102539 38.69860352 37.6875 40.4375 C37.91244141 41.56994141 38.13738281 42.70238281 38.36914062 43.86914062 C39.29569106 48.64833845 40.14118966 53.1164003 40 58 C38.68 58 37.36 58 36 58 C35.5610285 55.9794858 35.12394198 53.9585621 34.6875 51.9375 C34.41035156 50.6690625 34.13320312 49.400625 33.84765625 48.09375 C33.26747951 45.3727407 32.76020847 42.65143643 32.30859375 39.90625 C32.19362549 39.24246338 32.07865723 38.57867676 31.96020508 37.89477539 C31.63990311 36.02451986 31.33900307 34.15097252 31.0390625 32.27734375 C29.42817901 27.19639919 25.8229684 24.56343486 21.75 21.375 C17.56572388 17.8620473 14.30377624 13.65639278 10.91796875 9.390625 C8.00363863 5.75809948 6.57775949 4.72280413 2 4 C4.47933055 10.96060501 7.67990968 17.07851164 11.609375 23.3359375 C13 26 13 26 13 30 C12.01 30 11.02 30 10 30 C7.55937989 27.08092414 5.75124562 23.70527971 3.8125 20.4375 C3.25369141 19.54224609 2.69488281 18.64699219 2.11914062 17.72460938 C-0.88965762 12.70994563 -2.97012199 9.0302783 -2 3 C-1.34 2.01 -0.68 1.02 0 0 Z " fill="#101010" transform="translate(204,222)"/>
<path d="M0 0 C8.25 0 16.5 0 25 0 C25 1.65 25 3.3 25 5 C22.03 5 19.06 5 16 5 C16 12.92 16 20.84 16 29 C13.69 29 11.38 29 9 29 C9 21.41 9 13.82 9 6 C6.03 6 3.06 6 0 6 C0 4.02 0 2.04 0 0 Z " fill="#0E0E0E" transform="translate(298,291)"/>
<path d="M0 0 C3.42353094 -0.3734761 5.91060954 -0.57873868 9 1.0625 C10.58495594 4.13335213 9.68036707 6.72186775 9 10 C8.01 10.33 7.02 10.66 6 11 C6 22.55 6 34.1 6 46 C4.68 46 3.36 46 2 46 C2 34.45 2 22.9 2 11 C0.68 10.34 -0.64 9.68 -2 9 C-2.25 3.375 -2.25 3.375 0 0 Z " fill="#1C1C1C" transform="translate(246,141)"/>
<path d="M0 0 C1.98 0 3.96 0 6 0 C6 7.92 6 15.84 6 24 C10.95 24 15.9 24 21 24 C21 25.65 21 27.3 21 29 C14.07 29 7.14 29 0 29 C0 19.43 0 9.86 0 0 Z " fill="#000000" transform="translate(268,291)"/>
<path d="M0 0 C4 1 4 1 5.484375 2.84765625 C5.90203125 3.57855469 6.3196875 4.30945313 6.75 5.0625 C7.39195312 6.16271484 7.39195312 6.16271484 8.046875 7.28515625 C8.36140625 7.85105469 8.6759375 8.41695313 9 9 C11.40072955 6.11912454 13.47291037 3.43595166 15 0 C16.32 0 17.64 0 19 0 C19 5.61 19 11.22 19 17 C17.68 17 16.36 17 15 17 C14.67 14.69 14.34 12.38 14 10 C13.566875 10.825 13.13375 11.65 12.6875 12.5 C11.8521875 13.7375 11.8521875 13.7375 11 15 C10.01 15 9.02 15 8 15 C6.3125 12.5 6.3125 12.5 5 10 C4.67 12.31 4.34 14.62 4 17 C2.68 17 1.36 17 0 17 C0 11.39 0 5.78 0 0 Z " fill="#149FB8" transform="translate(209,336)"/>
<path d="M0 0 C4.29 0 8.58 0 13 0 C13 0.99 13 1.98 13 3 C10.03 3 7.06 3 4 3 C4 4.32 4 5.64 4 7 C6.64 7 9.28 7 12 7 C12 7.99 12 8.98 12 10 C9.36 10 6.72 10 4 10 C4 11.32 4 12.64 4 14 C7.3 14 10.6 14 14 14 C14 14.99 14 15.98 14 17 C9.38 17 4.76 17 0 17 C0 11.39 0 5.78 0 0 Z " fill="#139EB7" transform="translate(267,336)"/>
<path d="M0 0 C4.29 0 8.58 0 13 0 C13 0.99 13 1.98 13 3 C10.03 3 7.06 3 4 3 C4 4.32 4 5.64 4 7 C6.31 7 8.62 7 11 7 C11 7.99 11 8.98 11 10 C8.69 10 6.38 10 4 10 C4 11.32 4 12.64 4 14 C6.97 14 9.94 14 13 14 C13 14.99 13 15.98 13 17 C8.71 17 4.42 17 0 17 C0 11.39 0 5.78 0 0 Z " fill="#0B9BB5" transform="translate(242,336)"/>
<path d="M0 0 C4.95 0 9.9 0 15 0 C15 0.99 15 1.98 15 3 C13.02 3 11.04 3 9 3 C9 7.62 9 12.24 9 17 C7.68 17 6.36 17 5 17 C5 12.71 5 8.42 5 4 C3.35 4 1.7 4 0 4 C0 2.68 0 1.36 0 0 Z " fill="#1DA3BB" transform="translate(291,336)"/>
<path d="M0 0 C0.99 0 1.98 0 3 0 C3 7.92 3 15.84 3 24 C3.99 24.33 4.98 24.66 6 25 C2.04 25.495 2.04 25.495 -2 26 C-2.33 25.01 -2.66 24.02 -3 23 C-2.01 23 -1.02 23 0 23 C-0.03552979 22.3387915 -0.07105957 21.67758301 -0.10766602 20.99633789 C-0.26466247 18.01864712 -0.41368634 15.04061043 -0.5625 12.0625 C-0.61857422 11.02158203 -0.67464844 9.98066406 -0.73242188 8.90820312 C-0.78076172 7.91884766 -0.82910156 6.92949219 -0.87890625 5.91015625 C-0.9260376 4.99371338 -0.97316895 4.07727051 -1.02172852 3.13305664 C-1 1 -1 1 0 0 Z " fill="#F7F7F7" transform="translate(291,196)"/>
<path d="M0 0 C1.32 0.33 2.64 0.66 4 1 C4 8.92 4 16.84 4 25 C2.02 25.33 0.04 25.66 -2 26 C-1.67 25.34 -1.34 24.68 -1 24 C-0.84693099 22.18828902 -0.75053339 20.3716206 -0.68359375 18.5546875 C-0.62075195 16.94013672 -0.62075195 16.94013672 -0.55664062 15.29296875 C-0.51732422 14.16503906 -0.47800781 13.03710938 -0.4375 11.875 C-0.39431641 10.73933594 -0.35113281 9.60367188 -0.30664062 8.43359375 C-0.2003396 5.62252232 -0.09830595 2.81136055 0 0 Z " fill="#E9E9E9" transform="translate(206,196)"/>
<path d="M0 0 C1.32 0 2.64 0 4 0 C4 5.61 4 11.22 4 17 C3.01 17 2.02 17 1 17 C0.67 14.03 0.34 11.06 0 8 C-1.32 8.33 -2.64 8.66 -4 9 C-2.80100302 5.9168649 -1.52299523 2.93720508 0 0 Z " fill="#089AB4" transform="translate(224,336)"/>
<path d="M0 0 C2.96052484 3.36423277 3.92289822 6.69159287 5 11 C2.03 11 -0.94 11 -4 11 C-3.52269162 9.5410574 -3.04308958 8.08286504 -2.5625 6.625 C-2.29566406 5.81289063 -2.02882812 5.00078125 -1.75390625 4.1640625 C-1 2 -1 2 0 0 Z " fill="#E0E0E0" transform="translate(239,298)"/>
<path d="M0 0 C0.33 0 0.66 0 1 0 C1 7.92 1 15.84 1 24 C1.99 24.33 2.98 24.66 4 25 C0.04 25.495 0.04 25.495 -4 26 C-4.33 25.01 -4.66 24.02 -5 23 C-4.01 23 -3.02 23 -2 23 C-1.19347492 20.11832319 -0.82484994 17.43968453 -0.68359375 14.453125 C-0.64169922 13.60878906 -0.59980469 12.76445312 -0.55664062 11.89453125 C-0.51732422 11.02183594 -0.47800781 10.14914063 -0.4375 9.25 C-0.39431641 8.36183594 -0.35113281 7.47367188 -0.30664062 6.55859375 C-0.20086385 4.37254037 -0.09877454 2.18637911 0 0 Z " fill="#CCCCCC" transform="translate(293,196)"/>
<path d="M0 0 C1.32 0.66 2.64 1.32 4 2 C3.67 3.32 3.34 4.64 3 6 C1.68 6 0.36 6 -1 6 C-1.625 4.125 -1.625 4.125 -2 2 C-1.34 1.34 -0.68 0.68 0 0 Z " fill="#F2F2F2" transform="translate(249,143)"/>
<path d="M0 0 C0.99 0 1.98 0 3 0 C3 3.3 3 6.6 3 10 C2.01 9.34 1.02 8.68 0 8 C-0.40843923 5.28796348 -0.13336867 2.7562858 0 0 Z " fill="#F0F8FA" transform="translate(245,229)"/>
<path d="M0 0 C0.66 0.33 1.32 0.66 2 1 C2 3.64 2 6.28 2 9 C0.5 7.8125 0.5 7.8125 -1 6 C-1.25 3.375 -1.25 3.375 -1 1 C-0.67 0.67 -0.34 0.34 0 0 Z " fill="#DDF1F4" transform="translate(237,173)"/>
<path d="M0 0 C0.66 0.33 1.32 0.66 2 1 C1.67 3.31 1.34 5.62 1 8 C0.34 8 -0.32 8 -1 8 C-1.04241723 5.66705225 -1.04092937 3.33297433 -1 1 C-0.67 0.67 -0.34 0.34 0 0 Z " fill="#D6EEF2" transform="translate(262,173)"/>
</svg>
